<svg width="96" height="96" viewBox="0 0 96 96" fill="none" xmlns="http://www.w3.org/2000/svg">
<path d="M16 74L46.468 16.872C47.11 15.668 48.846 15.69 49.456 16.912L60 38L16 74Z" fill="#4E966B"/>
<path d="M16 73.984L27.092 5.58601C27.382 3.79601 29.786 3.40801 30.626 5.01601L52 45.984L16 73.984Z" fill="#568C8A"/>
<path d="M16.0161 73.972L16.4161 73.658L51.4741 44.976L41.5861 26.024L16.0161 73.972Z" fill="#5BC084"/>
<path d="M16 74L69.332 22.574C70.45 21.496 72.316 22.132 72.544 23.668L80 74L50 91.486C48.782 92.17 47.296 92.17 46.078 91.486L16 74Z" fill="#213B3A"/>
</svg>
